<?xml version="1.0" encoding="UTF-8" standalone="no"?>
<!-- Created with Inkscape (http://www.inkscape.org/) -->

<svg
   version="1.1"
   id="svg79"
   width="720"
   height="720"
   viewBox="0 0 720 720"
   sodipodi:docname="Pingüino.svg"
   inkscape:version="1.3.2 (091e20ef0f, 2023-11-25)"
   inkscape:export-filename="Pingüino-512.png"
   inkscape:export-xdpi="68.26667"
   inkscape:export-ydpi="68.26667"
   xmlns:inkscape="http://www.inkscape.org/namespaces/inkscape"
   xmlns:sodipodi="http://sodipodi.sourceforge.net/DTD/sodipodi-0.dtd"
   xmlns:xlink="http://www.w3.org/1999/xlink"
   xmlns="http://www.w3.org/2000/svg"
   xmlns:svg="http://www.w3.org/2000/svg">
  <defs
     id="defs83">
    <linearGradient
       id="swatch3"
       inkscape:swatch="solid">
      <stop
         style="stop-color:#ffffff;stop-opacity:1;"
         offset="0"
         id="stop3" />
    </linearGradient>
    <inkscape:path-effect
       effect="roughen"
       id="path-effect7206"
       is_visible="true"
       lpeversion="1.2"
       method="size"
       max_segment_size="184.534"
       segments="13"
       displace_x="4.5;1"
       displace_y="9.51;1"
       global_randomize="0.5;1"
       handles="along"
       shift_nodes="true"
       fixed_displacement="false"
       spray_tool_friendly="false" />
    <filter
       y="-0.01041252"
       height="1.020825"
       inkscape:menu-tooltip="Darkens the edge with an inner blur and adds a flexible glow"
       inkscape:menu="Shadows and Glows"
       inkscape:label="Dark and Glow"
       style="color-interpolation-filters:sRGB;"
       id="filter7329"
       x="-0.011646084"
       width="1.0232922">
      <feGaussianBlur
         stdDeviation="0.51873103"
         result="result6"
         id="feGaussianBlur7319" />
      <feComposite
         result="result8"
         in="SourceGraphic"
         operator="atop"
         in2="result6"
         id="feComposite7321" />
      <feComposite
         result="result9"
         operator="over"
         in2="SourceAlpha"
         in="result8"
         id="feComposite7323" />
      <feColorMatrix
         values="1 0 0 0 0 0 1 0 0 0 0 0 1 0 0 0 0 0 1 0 "
         result="result10"
         id="feColorMatrix7325" />
      <feBlend
         in="result10"
         mode="normal"
         in2="result6"
         id="feBlend7327" />
    </filter>
    <linearGradient
       inkscape:collect="always"
       xlink:href="#swatch3"
       id="linearGradient3"
       x1="169.23422"
       y1="235.47854"
       x2="502.70918"
       y2="235.47854"
       gradientUnits="userSpaceOnUse" />
    <filter
       y="-2.5515129e-07"
       height="1.0000005"
       inkscape:menu-tooltip="Darkens the edge with an inner blur and adds a flexible glow"
       inkscape:menu="Shadows and Glows"
       inkscape:label="Dark and Glow"
       style="color-interpolation-filters:sRGB;"
       id="filter4"
       x="-2.780801e-07"
       width="1.0000006">
      <feGaussianBlur
         stdDeviation="7.2101105e-06"
         result="result6"
         id="feGaussianBlur3" />
      <feComposite
         result="result8"
         in="SourceGraphic"
         operator="atop"
         in2="result6"
         id="feComposite3" />
      <feComposite
         result="result9"
         operator="over"
         in2="SourceAlpha"
         in="result8"
         id="feComposite4" />
      <feColorMatrix
         values="1 0 0 0 0 0 1 0 0 0 0 0 1 0 0 0 0 0 1 0 "
         result="result10"
         id="feColorMatrix4" />
      <feBlend
         in="result10"
         mode="normal"
         in2="result6"
         id="feBlend4" />
    </filter>
    <filter
       y="-4.0605032e-06"
       height="1.0000081"
       inkscape:menu-tooltip="Darkens the edge with an inner blur and adds a flexible glow"
       inkscape:menu="Shadows and Glows"
       inkscape:label="Dark and Glow"
       style="color-interpolation-filters:sRGB;"
       id="filter6"
       x="-4.4158166e-06"
       width="1.0000088">
      <feGaussianBlur
         stdDeviation="0.0001147547"
         result="result6"
         id="feGaussianBlur4" />
      <feComposite
         result="result8"
         in="SourceGraphic"
         operator="atop"
         in2="result6"
         id="feComposite5" />
      <feComposite
         result="result9"
         operator="over"
         in2="SourceAlpha"
         in="result8"
         id="feComposite6" />
      <feColorMatrix
         values="1 0 0 0 0 0 1 0 0 0 0 0 1 0 0 0 0 0 1 0 "
         result="result10"
         id="feColorMatrix6" />
      <feBlend
         in="result10"
         mode="normal"
         in2="result6"
         id="feBlend6" />
    </filter>
    <filter
       y="-0.020107838"
       height="1.0402157"
       inkscape:menu-tooltip="Darkens the edge with an inner blur and adds a flexible glow"
       inkscape:menu="Shadows and Glows"
       inkscape:label="Dark and Glow"
       style="color-interpolation-filters:sRGB;"
       id="filter8"
       x="-0.01135363"
       width="1.0227073">
      <feGaussianBlur
         stdDeviation="0.64311269"
         result="result6"
         id="feGaussianBlur6" />
      <feComposite
         result="result8"
         in="SourceGraphic"
         operator="atop"
         in2="result6"
         id="feComposite7" />
      <feComposite
         result="result9"
         operator="over"
         in2="SourceAlpha"
         in="result8"
         id="feComposite8" />
      <feColorMatrix
         values="1 0 0 0 0 0 1 0 0 0 0 0 1 0 0 0 0 0 1 0 "
         result="result10"
         id="feColorMatrix8" />
      <feBlend
         in="result10"
         mode="normal"
         in2="result6"
         id="feBlend8" />
    </filter>
    <filter
       inkscape:collect="always"
       style="color-interpolation-filters:sRGB"
       id="filter946"
       x="-0.34563169"
       y="-0.36789776"
       width="1.6912634"
       height="1.7357955">
      <feGaussianBlur
         inkscape:collect="always"
         stdDeviation="8.1890549"
         id="feGaussianBlur948" />
    </filter>
    <filter
       inkscape:collect="always"
       style="color-interpolation-filters:sRGB"
       id="filter946-3"
       x="-0.34563169"
       y="-0.36789776"
       width="1.6912634"
       height="1.7357955">
      <feGaussianBlur
         inkscape:collect="always"
         stdDeviation="8.1890549"
         id="feGaussianBlur948-6" />
    </filter>
  </defs>
  <sodipodi:namedview
     id="namedview81"
     pagecolor="#505050"
     bordercolor="#eeeeee"
     borderopacity="1"
     inkscape:showpageshadow="0"
     inkscape:pageopacity="0"
     inkscape:pagecheckerboard="0"
     inkscape:deskcolor="#505050"
     showgrid="false"
     inkscape:zoom="0.48617458"
     inkscape:cx="338.35582"
     inkscape:cy="344.52645"
     inkscape:window-width="1920"
     inkscape:window-height="731"
     inkscape:window-x="0"
     inkscape:window-y="0"
     inkscape:window-maximized="1"
     inkscape:current-layer="layer4"
     showguides="true" />
  <g
     inkscape:groupmode="layer"
     id="layer5"
     inkscape:label="Pingüino"
     style="display:inline"
     sodipodi:insensitive="true">
    <path
       id="path3986"
       style="display:inline;fill:#000000;fill-opacity:1;filter:url(#filter7329)"
       inkscape:label="BlackBase"
       d="m 368.14022,23.80353 c -69.90957,-0.30058 -147.01232,24.115091 -174.63867,93.91211 -27.97397,70.67493 -2.34586,145.86806 37.9961,206 -26.68598,-0.074 -52.62803,-7.86011 -79,-10.66211 -10.81899,-1.15 -25.49092,-1.65369 -33.62891,6.9043 -12.59999,13.25198 0.63498,32.15882 8.91797,43.75781 23.72497,33.22297 54.33431,62.62004 71.77929,100 8.676,18.58998 13.68181,45.42702 5.25782,65 -3.545,8.23699 -15.71096,16.22401 -16.62696,25 -0.621,5.94399 7.86879,11.528 12.30079,14 7.03799,-11.48199 15.00696,-29.00864 28.25195,-12.97266 2.086,2.526 3.89905,5.27266 5.74805,7.97266 5.64699,-2.649 10.511,-9.73561 17,-10.09961 9.45297,-0.53 14.99362,13.85062 17.01562,21.09961 7.57199,27.14797 -4.93365,46.64102 -13.01562,71 39.79294,12.98299 79.79504,-0.0507 119.99999,-2.84375 26.50898,-1.842 52.61503,5.73975 79,6.84375 -14.67398,-20.75298 -28.49271,-42.43403 -26.88671,-69 0.415,-6.87999 5.53007,-25.89784 14.91406,-24.96484 5.33899,0.531 10.10466,6.72484 14.97265,8.96484 1.731,-8.48899 8.07702,-27.38618 20,-23.74219 8.723,2.666 13.51701,11.27419 21,15.74219 1.365,-2.843 2.83616,-5.502 4.78516,-8 15.41999,-19.76698 25.06885,9.60701 27.21485,23 8.24399,-26.49197 -13.58337,-49.59002 -20.19336,-73 -3.278,-11.61099 1.08912,-23.24501 0.70312,-35 -0.523,-15.89498 -6.46083,-32.47701 -12.54883,-47 -4.49199,-10.71699 -11.13174,-20.14001 -17.17773,-30 -2.481,-4.047 -7.15211,-9.06901 -7.41211,-14 -0.406,-7.66999 10.98455,-17.39501 15.43555,-23 14.94998,-18.82698 31.49251,-36.34902 42.4375,-58 42.46495,-84.00192 21.22077,-200.141955 -65.24415,-248.09961 -21.16395,-11.738688 -45.32702,-14.766871 -69,-17.230468 C 387.9694,24.394013 378.1273,23.84647 368.14022,23.80353 Z m -73.96679,83.0957 c 10.80193,0.69535 21.78727,6.1779 30.32226,12.21289 32.82997,23.21498 38.20394,63.91456 27.00195,99.60352 15.26299,-4.312 20.83202,-0.56499 34,7 0.258,-9.60199 4.15152,-18.08901 7.35352,-27 7.68699,-21.38798 16.64322,-45.07209 33.6582,-60.83008 18.31799,-16.96598 41.35321,-17.25567 58.24219,2.07031 19.03098,21.77698 18.75209,54.6838 18.74609,81.75977 0,7.80699 -3.81257,19.22865 -1.51757,26.55664 1.72,5.49799 7.67702,9.67036 10.79101,14.44336 6.699,10.26599 3.83529,21.36501 -2.4707,31 -41.28996,63.08994 -123.7418,58.39199 -188.80274,49 -44.14495,-6.37299 -90.06629,-24.83605 -104.23828,-72 -2.70699,-9.00999 -4.82735,-21.02301 -0.94336,-30 5.699,-13.17199 17.49173,-20.98302 20.01172,-36 5.524,-32.91997 8.64998,-72.1654 39.16992,-92.98438 5.78062,-3.94349 12.19463,-5.24924 18.67579,-4.83203 z m 12.93164,41.52149 c -3.27095,-0.21214 -6.80518,0.0793 -10.60743,0.96094 -20.59197,4.77499 -26.95564,26.166 -29.18164,44.33398 -0.80599,6.57499 -2.27512,14.96665 1.42188,20.93164 8.66299,13.97399 36.55978,15.58161 50.75976,12.09961 13.78499,-3.381 16.09998,-16.67126 17.66797,-29.03125 2.74225,-21.61948 -7.16395,-47.80993 -30.06054,-49.29492 z m -0.86133,4.00976 c 22.68365,1.34415 29.74046,24.01549 27.1914,44.28516 -1.22299,9.72199 -2.66251,21.193 -12.9375,25 4.76,-12.33299 9.02603,-29.97339 0.95704,-41.98438 -11.08099,-16.49498 -35.26785,-10.4966 -41.71485,6.98438 -3.54199,9.60299 -2.56518,21.07401 -1.24219,31 -9.31799,-4.588 -8.28312,-15.02801 -7.32812,-24 1.855,-17.42698 9.32215,-39.90072 30.32812,-41.26172 1.65294,-0.107 3.23386,-0.11305 4.7461,-0.0234 z m 141.00586,9.57227 c -1.2235,-0.0165 -2.47349,0.043 -3.75196,0.18359 -22.81097,2.509 -28.98183,23.06732 -32.79882,42.5293 -1.313,6.69899 -4.10583,15.67341 -0.17383,21.94141 8.70799,13.88198 32.53767,15.2647 46.97265,13.7207 38.82454,-4.15303 27.68044,-77.86244 -10.24804,-78.375 z m -2.33203,4.58789 c 2.65295,-0.13326 5.50958,0.0442 8.58007,0.56836 20.52496,3.502 23.0491,26.38166 22.9961,43.55664 -0.036,11.66799 -2.05313,22.288 -14.9961,25 2.77198,-6.63299 4.99718,-12.72701 5.20118,-20 0.635,-22.67998 -21.35265,-44.7303 -39.51563,-20.98633 -8.17899,10.69099 -7.11754,23.60834 -4.68555,35.98633 -11.89398,-5.77199 -9.18196,-16.70001 -7.54296,-28 2.76062,-19.03561 11.39222,-35.1922 29.96289,-36.125 z M 340.83163,361.48322 c 8.64238,-0.20911 17.95527,0.74328 25.66601,2.92578 8.337,2.36 16.11206,7.09424 22.99805,12.24023 8.34299,6.234 18.17739,15.30842 20.27539,26.06641 1.516,7.77499 -2.60647,17.07801 -5.73047,24 -7.77999,17.24098 -17.65404,34.07602 -27.83203,50 -5.23999,8.19899 -17.72126,20.4232 -15.94726,30.99219 1.373,8.18099 10.31633,9.80547 17.23632,9.98047 11.94499,0.302 36.50353,-6.46831 46.47852,1.05468 13.30799,10.03499 10.7586,31.21767 4.22461,43.97266 -14.55599,28.41297 -37.82216,41.16975 -68.70313,46.34375 -51.22894,8.58299 -92.96253,-29.0588 -105.68749,-77.34375 -7.588,-28.79397 -4.8692,-59.32103 1.46679,-88 9.05897,-40.99896 32.89775,-76.19268 77.2207,-81.63867 2.648,-0.32525 5.4532,-0.52405 8.33399,-0.59375 z"
       transform="translate(28.29923,10.655454)"
       inkscape:highlight-color="#413fe4" />
    <g
       inkscape:groupmode="layer"
       id="layer4"
       inkscape:label="Face"
       style="display:inline"
       inkscape:highlight-color="#a4c95a">
      <path
         style="display:inline;fill:url(#linearGradient3);fill-opacity:1;stroke-width:1.2808;filter:url(#filter7329)"
         d="m 327.65811,354.44614 c -15.4611,-1.21706 -46.7854,-5.92772 -57.7322,-8.68194 -37.8176,-9.51502 -63.97822,-28.25144 -76.63446,-54.88608 -7.28889,-15.33924 -9.75793,-32.11449 -6.03734,-41.01912 0.97049,-2.32273 5.51923,-9.72247 10.10829,-16.44389 4.58907,-6.72141 8.69165,-13.88014 9.11684,-15.90829 0.42519,-2.02814 2.20398,-12.04473 3.95287,-22.25909 5.36225,-31.31818 10.66005,-46.52121 20.977,-60.19747 6.5456,-8.67695 17.9612,-17.54496 24.0575,-18.68863 16.7332,-3.13917 40.8378,8.50883 54.819,26.49004 10.675,13.72921 16.0418,30.22456 16.0727,49.4016 0.017,10.47595 -2.2284,27.01091 -4.4248,32.58479 -0.7093,1.80012 0.3435,1.98183 8.5415,1.47419 8.5701,-0.53068 9.9762,-0.24769 16.8453,3.39019 9.013,4.77333 9.7961,4.84544 9.7961,0.90212 0,-7.94746 15.8431,-49.09077 24.5415,-63.73236 16.466,-27.7163 39.8804,-39.15932 59.37608,-29.01804 14.0475,7.30725 25.2999,24.73622 29.6121,45.86639 2.0839,10.21134 2.6492,37.09652 1.4025,66.703 -0.2637,6.26357 0.1736,7.73491 3.5415,11.91592 10.707,13.29177 12.3183,17.86388 9.7397,27.63757 -3.0448,11.54045 -17.8366,29.72943 -32.9944,40.57194 -16.5293,11.82351 -40.29808,20.35928 -65.12028,23.38573 -10.5838,1.29044 -45.8173,1.593 -59.557,0.51143 z M 434.00899,247.76911 c 5.3801,-1.49464 13.1859,-9.1111 15.7605,-15.37826 9.2229,-22.4497 -3.8787,-55.80813 -24.14758,-61.48306 -11.191,-3.13328 -24.9088,0.77326 -31.9029,9.08523 -4.9924,5.93317 -7.9533,12.32754 -10.9852,23.7242 -3.9402,14.81091 -4.6752,25.91243 -2.0514,30.9863 2.6237,5.07354 10.1329,10.16972 18.2879,12.41115 7.3702,2.02571 28.6707,2.42355 35.03868,0.65444 z M 294.35731,233.23244 c 10.0287,-4.80726 15.1164,-19.36775 13.7472,-39.34327 -1.564,-22.81756 -14.26,-37.58561 -32.3187,-37.59326 -10.0965,-0.004 -16.5234,2.32936 -23.0934,8.38536 -9.6527,8.89762 -16.8602,31.53391 -15.7237,49.383 0.4255,6.68145 1.1207,8.67142 4.1252,11.80743 10.1297,10.57307 38.4092,14.48116 53.2634,7.36074 z"
         id="path2068"
         inkscape:label="WhiteFace"
         transform="translate(57.74734,2.5505012)" />
      <g
         inkscape:groupmode="layer"
         id="layer7"
         inkscape:label="Blush"
         style="display:none">
        <ellipse
           style="mix-blend-mode:normal;fill:#fcadad;fill-opacity:1;stroke-width:0.918335;filter:url(#filter946)"
           id="path159"
           cx="283.79553"
           cy="268.83585"
           rx="28.43161"
           ry="26.710859"
           inkscape:label="LeftBlush" />
        <ellipse
           style="display:inline;mix-blend-mode:normal;fill:#fcadad;fill-opacity:1;stroke-width:0.918335;filter:url(#filter946-3)"
           id="path159-7"
           cx="504.13901"
           cy="283.61432"
           rx="28.43161"
           ry="26.710859"
           inkscape:label="LeftBlush" />
      </g>
      <path
         style="display:inline;opacity:1;mix-blend-mode:normal;fill:#ff8f1c;fill-opacity:1;stroke-width:0.90566;filter:url(#filter8)"
         d="m -481.66138,287.824 c -23.69825,-2.84004 -47.73467,-10.49147 -65.69142,-26.78122 -6.06077,-8.2635 4.7653,-15.35518 12.39925,-18.00887 19.39514,-9.11146 34.93725,-24.25189 55.37837,-31.17653 13.84338,-0.0216 22.6286,12.62728 32.51598,20.43104 12.22006,10.76553 23.38148,23.59786 33.34378,36.46099 2.8397,8.90937 -6.14626,16.03529 -14.0179,16.89273 -17.35214,3.96016 -36.18688,3.14595 -53.92806,2.18186 z"
         id="path7188"
         inkscape:path-effect="#path-effect7206"
         inkscape:original-d="m -481.24802,289.23419 c -23.69825,-2.84004 -47.72375,-10.6077 -65.6805,-26.89745 -6.06077,-8.2635 3.03725,-17.18242 10.6712,-19.83611 19.39514,-9.11146 36.55344,-22.70283 56.99456,-29.62747 13.84338,-0.0216 22.59798,12.31181 32.48536,20.11557 12.22006,10.76553 23.12268,22.95342 33.08498,35.81655 2.8397,8.90937 -6.5189,15.56622 -14.39054,16.42366 -17.35214,3.96016 -35.42388,4.96934 -53.16506,4.00525 z"
         inkscape:label="Bill"
         transform="translate(874.09404,9.9762089)" />
      <g
         inkscape:groupmode="layer"
         id="layer1"
         inkscape:label="Eyes"
         style="display:inline">
        <path
           style="display:inline;fill:#ffffff;fill-opacity:1;stroke-width:0.640399;filter:url(#filter4)"
           d="m 434.69059,237.57698 c 4.5249,-13.12785 3.4003,-24.79662 -3.36668,-34.93026 -4.6542,-6.96972 -9.5847,-9.92943 -16.5716,-9.94778 -4.1353,-0.0109 -5.2775,0.25023 -8.216,1.87787 -4.2429,2.35015 -9.7044,8.16708 -11.8751,12.64791 -3.4823,7.18819 -4.4447,15.6576 -2.9063,25.57345 0.3836,2.47229 0.542,4.65054 0.352,4.84056 -0.6853,0.68527 -4.1839,-2.75149 -5.851,-5.74764 -2.1892,-3.93432 -2.2737,-9.71404 -0.3118,-21.33155 3.3058,-19.57564 10.1929,-30.07308 22.4573,-34.22993 5.3725,-1.82093 14.9542,-1.53321 20.5688,0.61765 11.55788,4.42763 17.81548,18.73729 17.79718,40.69762 -0.011,13.33587 -2.946,20.59792 -9.7358,24.09039 -4.20298,2.16196 -4.39928,1.81326 -2.341,-4.15829 z"
           id="RightEye"
           transform="translate(57.74734,2.5505014)" />
        <path
           style="display:inline;fill:#ffffff;fill-opacity:1;stroke-width:0.640399;filter:url(#filter6)"
           d="m 292.10361,227.74796 c 2.3506,-5.92167 4.8241,-17.83492 4.8042,-23.13824 -0.064,-16.97556 -12.2218,-29.03832 -26.5904,-26.38214 -11.3935,2.10621 -19.2487,10.05609 -21.6946,21.95624 -1.048,5.09868 -1.251,14.72012 -0.4465,21.16015 0.253,2.02526 0.2852,3.68229 0.072,3.68229 -0.9123,0 -4.5068,-4.36841 -5.5328,-6.72418 -3.2622,-7.48999 0.7872,-32.1892 6.9284,-42.25864 6.897,-11.30885 14.3039,-15.45394 26.7104,-14.9478 5.2639,0.21475 6.7817,0.54458 10.4728,2.27593 8.1447,3.82026 13.9525,11.82641 16.1687,22.28855 1.8971,8.95581 0.7806,25.078 -2.3085,33.33427 -0.8472,2.26432 -2.4926,4.80902 -4.3671,6.75377 -3.0518,3.16617 -5.0567,4.11711 -4.2162,1.9998 z"
           id="LefEye"
           transform="translate(57.74734,2.5505014)" />
      </g>
    </g>
    <g
       inkscape:groupmode="layer"
       id="layer3"
       inkscape:label="Limbs"
       style="display:inline"
       inkscape:highlight-color="#5ac996">
      <path
         style="display:inline;fill:#fefefe;fill-opacity:1;stroke-width:1.2808;filter:url(#filter7329)"
         d="m 298.19971,616.00998 c -12.7375,-2.85901 -30.0946,-12.04404 -40.1206,-21.231 -28.1978,-25.83814 -41.34283,-65.03914 -36.8233,-109.8138 5.61179,-55.59548 23.6269,-90.03804 55.4861,-106.08206 13.1262,-6.61025 23.1677,-8.5165 41.3102,-7.8422 17.6796,0.65709 25.1115,2.92029 37.2895,11.35558 15.3048,10.60111 24.7821,22.81679 24.8166,31.98724 0.041,10.88582 -21.7796,53.70496 -39.8284,78.1564 -12.3669,16.75386 -13.3966,26.22094 -3.4135,31.38341 3.0805,1.59296 6.6996,1.99275 15.0114,1.65821 6.0237,-0.24247 17.3995,-0.46062 25.2793,-0.4848 14.1132,-0.0433 14.3853,0.0115 18.2286,3.69607 9.6171,9.21889 10.3829,25.67622 1.9889,42.7451 -7.0069,14.24846 -20.8428,27.88167 -35.3201,34.80274 -20.5501,9.82423 -46.0346,13.68017 -63.9047,9.66911 z"
         id="WhiteBelly"
         transform="translate(57.74734,2.5505014)" />
      <g
         inkscape:groupmode="layer"
         id="layer2"
         inkscape:label="Foot"
         style="display:inline">
        <path
           style="display:inline;fill:#ff8f1b;fill-opacity:1;filter:url(#filter7329)"
           d="m -128.71484,563.13273 c 4.21158,24.8258 4.33622,51.71119 -7.41748,74.62117 -12.2071,17.61175 -36.81611,22.99339 -56.49969,16.40464 -11.79029,-3.63179 -22.05007,-12.84072 -25.58708,-24.83365 -7.04309,-15.64279 -16.32102,-31.72509 -14.57756,-49.5248 0.77519,-8.46006 2.56104,-17.3345 7.84984,-24.20081 6.04683,-6.22039 12.68495,1.0072 18.33178,3.20054 8.16434,-0.62183 6.24488,-10.66623 9.96351,-15.59835 4.32814,-7.04231 14.63248,-7.63718 20.64176,-2.5022 4.05087,2.35261 4.93198,8.27811 9.97358,9.08287 5.64534,1.08505 10.22233,-3.67804 11.94707,-8.49183 4.71887,-5.15626 13.76979,-2.21336 16.12307,3.8943 3.44346,5.79127 4.11688,13.19266 9.2512,17.94812 z"
           id="RightFoot"
           transform="translate(688.09404,10.655454)" />
        <path
           style="display:inline;fill:#ff8f1b;fill-opacity:1;filter:url(#filter7329)"
           d="m -390.81178,564.87823 c 4.21158,24.8258 4.33622,51.71119 -7.41748,74.62117 -12.2071,17.61175 -36.81611,22.99339 -56.49969,16.40464 -11.79029,-3.63179 -22.05007,-12.84072 -25.58708,-24.83365 -7.04309,-15.64279 -16.32102,-31.72509 -14.57756,-49.5248 0.77519,-8.46006 2.56104,-17.3345 7.84984,-24.20081 6.04683,-6.22039 12.68495,1.0072 18.33178,3.20054 8.16434,-0.62183 6.24488,-10.66623 9.96351,-15.59835 4.32814,-7.04231 14.63248,-7.63718 20.64176,-2.5022 4.05087,2.35261 4.93198,8.27811 9.97358,9.08287 5.64534,1.08505 10.22233,-3.67804 11.94707,-8.49183 4.71887,-5.15626 13.76979,-2.21336 16.12307,3.8943 3.44346,5.79127 4.11688,13.19266 9.2512,17.94812 z"
           id="LeftFoot"
           transform="translate(688.09404,10.655454)" />
      </g>
    </g>
  </g>
  <g
     inkscape:groupmode="layer"
     id="layer6"
     inkscape:label="Experiments"
     style="display:none"
     sodipodi:insensitive="true">
    <g
       inkscape:groupmode="layer"
       id="layer8"
       inkscape:label="Others"
       style="display:inline">
      <ellipse
         style="display:none;opacity:1;fill:#ffffff;fill-opacity:1;stroke-width:0.834051"
         id="path8"
         cx="360.02618"
         cy="154.26616"
         rx="13.75534"
         ry="18.641405"
         transform="matrix(0.98730906,0.15881063,-0.1611819,0.98692472,0,0)" />
      <path
         style="display:none;opacity:1;fill:#ffffff;fill-opacity:1"
         d="m 106.87984,272.48006 -0.36668,-3.91893 -0.24414,-2.65932 -0.31109,-5.15147 -0.0248,-1.95236 0.0362,-0.80747 0.0985,-3.08209 0.17357,-2.39897 0.0603,-0.90971 0.14171,-1.46541 0.138,-1.08299 0.21772,-1.2002 0.3357,-1.43166 0.56715,-2.31266 0.78325,-2.32878 2.14961,-4.38217 5.50863,-6.66149 11.06743,-4.88985 11.97483,0.58696 10.16218,7.43025 5.19896,11.31882 0.0777,15.70264 -4.67352,14.81249 -13.5172,2.77994 -23.70689,-3.16998 z"
         id="path10" />
    </g>
  </g>
</svg>
